<?xml version="1.0" standalone="no"?>
<!DOCTYPE svg PUBLIC "-//W3C//DTD SVG 20010904//EN"
 "http://www.w3.org/TR/2001/REC-SVG-20010904/DTD/svg10.dtd">
<svg version="1.0" xmlns="http://www.w3.org/2000/svg"
 width="1685.000000pt" height="1685.000000pt" viewBox="0 0 1685.000000 1685.000000"
 preserveAspectRatio="xMidYMid meet">
<metadata>
Created by potrace 1.11, written by Peter Selinger 2001-2013
</metadata>
<g transform="translate(0.000000,1685.000000) scale(0.100000,-0.100000)"
fill="#000000" stroke="none">
<path d="M13290 16839 c-335 -27 -722 -105 -1050 -211 -146 -47 -361 -127
-374 -138 -5 -5 -1 -57 8 -122 21 -144 46 -349 46 -368 -1 -30 -68 62 -136
187 -39 72 -89 148 -115 175 l-46 48 -129 -59 c-330 -150 -431 -199 -599 -285
-262 -135 -458 -256 -625 -386 l-33 -26 31 -124 c36 -146 54 -227 117 -525 25
-121 54 -253 65 -292 10 -40 16 -73 14 -73 -7 0 -140 204 -259 395 -123 200
-272 415 -287 415 -29 0 -630 -473 -888 -699 -494 -433 -1013 -958 -1419
-1435 l-129 -152 29 -109 c16 -61 47 -198 70 -305 22 -107 49 -231 60 -274 10
-44 17 -81 15 -83 -6 -7 -160 227 -250 380 -48 81 -91 147 -95 147 -5 0 -51
-48 -103 -107 -430 -491 -889 -1111 -1321 -1783 -76 -118 -197 -299 -270 -402
-150 -213 -222 -334 -255 -428 -28 -81 -24 -147 19 -317 58 -228 332 -1463
326 -1469 -4 -5 -51 68 -245 381 -85 138 -188 302 -230 365 -81 124 -261 370
-271 370 -4 0 -19 -26 -35 -57 -54 -112 -250 -459 -306 -543 -147 -220 -180
-300 -180 -433 0 -112 14 -192 79 -457 47 -190 98 -480 136 -779 9 -68 14
-125 12 -127 -1 -2 -18 43 -36 99 -19 56 -84 242 -146 412 -106 292 -185 532
-185 561 0 19 -22 29 -30 13 -5 -8 -44 -64 -87 -125 -164 -232 -176 -306 -99
-644 31 -137 76 -398 160 -935 48 -300 116 -759 116 -776 0 -11 -28 -30 -82
-56 -201 -97 -341 -258 -402 -463 -32 -107 -58 -330 -38 -330 10 0 49 27 90
62 37 31 60 35 101 13 67 -34 66 -138 -3 -379 -86 -302 -85 -420 7 -497 l30
-26 -37 -94 c-92 -228 -332 -812 -628 -1524 -583 -1403 -997 -2429 -985 -2441
2 -2 68 43 148 99 79 56 294 208 477 336 263 184 332 237 326 250 -3 9 -9 75
-11 146 -8 207 27 346 178 708 75 179 191 487 444 1172 225 610 372 940 515
1160 l72 110 82 39 c68 32 97 54 176 135 148 150 216 281 359 694 l76 221 120
54 c617 277 1222 438 1813 483 88 6 255 9 390 7 229 -5 244 -7 447 -47 214
-43 398 -62 429 -44 14 8 2 17 -66 48 -134 61 -253 101 -598 200 -329 94 -514
155 -493 162 7 3 150 -7 320 -21 396 -33 690 -54 878 -62 l150 -6 29 53 c16
30 99 171 184 314 144 240 285 468 742 1195 132 209 347 560 436 712 2 3 -182
68 -408 143 -608 202 -1236 425 -1288 456 -9 6 408 8 1046 7 l1060 -3 34 55
c89 147 303 481 598 935 475 731 852 1333 852 1361 0 6 -26 22 -57 38 -82 39
-474 268 -469 273 6 6 472 -26 589 -41 l99 -12 32 40 c75 94 256 391 256 421
0 12 8 9 -444 131 -438 117 -789 232 -713 234 51 0 386 50 812 120 231 38 488
78 570 90 83 12 151 22 151 23 1 1 93 160 204 352 583 1008 899 1625 1154
2251 60 148 156 401 170 451 9 28 -1 33 -249 132 -104 42 -214 92 -243 111
l-53 35 33 3 c18 1 128 16 245 32 116 17 243 30 281 30 l70 0 16 48 c35 105
47 192 53 362 7 245 -24 420 -96 546 l-30 51 -123 17 c-68 9 -170 21 -228 26
-127 11 -525 10 -670 -1z m820 -192 c-8 -8 -98 -81 -200 -162 -733 -589 -1374
-1169 -2156 -1950 -477 -476 -737 -748 -1094 -1140 -1721 -1893 -3378 -4135
-4862 -6575 -372 -612 -862 -1473 -1088 -1913 -30 -59 -57 -107 -60 -107 -3 0
-34 56 -69 124 l-65 123 103 214 c269 559 670 1319 1009 1909 1458 2542 3286
4894 5352 6889 952 918 1961 1768 2840 2391 96 68 202 143 235 167 60 43 82
54 55 30z"/>
</g>
</svg>
